{"asset":{"version":"2.0","generator":"PuppyBot COLLADA-to-glTF converter"},"scene":0,"scenes":[{"nodes":[0]}],"nodes":[{"mesh":0,"name":"gripper_right1"}],"meshes":[{"name":"gripper_right1","primitives":[{"attributes":{"POSITION":0,"NORMAL":1},"material":0,"mode":4},{"attributes":{"POSITION":2,"NORMAL":3},"material":0,"mode":4}]}],"materials":[{"name":"Adaptive gripper","pbrMetallicRoughness":{"baseColorFactor":[0.62,0.67,0.72,1.0],"metallicFactor":0.45,"roughnessFactor":0.36}}],"buffers":[{"byteLength":189792,"uri":"data:application/octet-stream;base64,"}],"bufferViews":[{"buffer":0,"byteOffset":0,"byteLength":39312,"target":34962},{"buffer":0,"byteOffset":39312,"byteLength":39312,"target":34962},{"buffer":0,"byteOffset":78624,"byteLength":55584,"target":34962},{"buffer":0,"byteOffset":134208,"byteLength":55584,"target":34962}],"accessors":[{"bufferView":0,"componentType":5126,"count":3276,"type":"VEC3","min":[0.019029207994401928,0.04052441410034035,-0.0065333015441895],"max":[0.032127339581908936,0.0668908333854318,0.0141333015441895]},{"bufferView":1,"componentType":5126,"count":3276,"type":"VEC3"},{"bufferView":2,"componentType":5126,"count":4632,"type":"VEC3","min":[0.025032967152880673,0.008696634535312687,-0.0032],"max":[0.04346477524464797,0.06670810491611098,0.0108]},{"bufferView":3,"componentType":5126,"count":4632,"type":"VEC3"}]}
