{"asset":{"version":"2.0","generator":"PuppyBot COLLADA-to-glTF converter"},"scene":0,"scenes":[{"nodes":[0]}],"nodes":[{"mesh":0,"name":"gripper_left1"}],"meshes":[{"name":"gripper_left1","primitives":[{"attributes":{"POSITION":0,"NORMAL":1},"material":0,"mode":4},{"attributes":{"POSITION":2,"NORMAL":3},"material":0,"mode":4}]}],"materials":[{"name":"Adaptive gripper","pbrMetallicRoughness":{"baseColorFactor":[0.62,0.67,0.72,1.0],"metallicFactor":0.45,"roughnessFactor":0.36}}],"buffers":[{"byteLength":189792,"uri":"data:application/octet-stream;base64,"}],"bufferViews":[{"buffer":0,"byteOffset":0,"byteLength":55584,"target":34962},{"buffer":0,"byteOffset":55584,"byteLength":55584,"target":34962},{"buffer":0,"byteOffset":111168,"byteLength":39312,"target":34962},{"buffer":0,"byteOffset":150480,"byteLength":39312,"target":34962}],"accessors":[{"bufferView":0,"componentType":5126,"count":4632,"type":"VEC3","min":[-0.04467977626642608,0.008324711167702713,-0.0031999999999999993],"max":[-0.026247802493835452,0.06633610115187644,0.0108]},{"bufferView":1,"componentType":5126,"count":4632,"type":"VEC3"},{"bufferView":2,"componentType":5126,"count":3276,"type":"VEC3","min":[-0.033342251131814715,0.04015243876865743,-0.0065333015441895],"max":[-0.020244041465749738,0.06651885805374885,0.0141333015441895]},{"bufferView":3,"componentType":5126,"count":3276,"type":"VEC3"}]}
