{"asset":{"version":"2.0","generator":"PuppyBot COLLADA-to-glTF converter"},"scene":0,"scenes":[{"nodes":[0]}],"nodes":[{"mesh":0,"name":"gripper_right2"}],"meshes":[{"name":"gripper_right2","primitives":[{"attributes":{"POSITION":0,"NORMAL":1},"material":0,"mode":4}]}],"materials":[{"name":"Adaptive gripper","pbrMetallicRoughness":{"baseColorFactor":[0.62,0.67,0.72,1.0],"metallicFactor":0.45,"roughnessFactor":0.36}}],"buffers":[{"byteLength":219456,"uri":"data:application/octet-stream;base64,"}],"bufferViews":[{"buffer":0,"byteOffset":0,"byteLength":109728,"target":34962},{"buffer":0,"byteOffset":109728,"byteLength":109728,"target":34962}],"accessors":[{"bufferView":0,"componentType":5126,"count":9144,"type":"VEC3","min":[0.0005132681157164321,0.014823277440601815,-0.00620000026950073],"max":[0.03623254886756946,0.03949910027744246,0.0138000002073364]},{"bufferView":1,"componentType":5126,"count":9144,"type":"VEC3"}]}
