{"asset":{"version":"2.0","generator":"PuppyBot COLLADA-to-glTF converter"},"scene":0,"scenes":[{"nodes":[0]}],"nodes":[{"mesh":0,"name":"gripper_left3"}],"meshes":[{"name":"gripper_left3","primitives":[{"attributes":{"POSITION":0,"NORMAL":1},"material":0,"mode":4}]}],"materials":[{"name":"Adaptive gripper","pbrMetallicRoughness":{"baseColorFactor":[0.62,0.67,0.72,1.0],"metallicFactor":0.45,"roughnessFactor":0.36}}],"buffers":[{"byteLength":516528,"uri":"data:application/octet-stream;base64,"}],"bufferViews":[{"buffer":0,"byteOffset":0,"byteLength":258264,"target":34962},{"buffer":0,"byteOffset":258264,"byteLength":258264,"target":34962}],"accessors":[{"bufferView":0,"componentType":5126,"count":21522,"type":"VEC3","min":[-0.04419099043378827,-0.01672914912065502,0.0088],"max":[0.0008396948743736399,0.016802539020376227,0.013800000000000172]},{"bufferView":1,"componentType":5126,"count":21522,"type":"VEC3"}]}
