{"asset":{"version":"2.0","generator":"PuppyBot COLLADA-to-glTF converter"},"scene":0,"scenes":[{"nodes":[0]}],"nodes":[{"mesh":0,"name":"gripper_right3"}],"meshes":[{"name":"gripper_right3","primitives":[{"attributes":{"POSITION":0,"NORMAL":1},"material":0,"mode":4}]}],"materials":[{"name":"Adaptive gripper","pbrMetallicRoughness":{"baseColorFactor":[0.62,0.67,0.72,1.0],"metallicFactor":0.45,"roughnessFactor":0.36}}],"buffers":[{"byteLength":273024,"uri":"data:application/octet-stream;base64,"}],"bufferViews":[{"buffer":0,"byteOffset":0,"byteLength":136512,"target":34962},{"buffer":0,"byteOffset":136512,"byteLength":136512,"target":34962}],"accessors":[{"bufferView":0,"componentType":5126,"count":11376,"type":"VEC3","min":[-0.001999948585024788,-0.01675640740080166,0.008799999999999916],"max":[0.04297080906534962,0.017171453765695576,0.013800000000000002]},{"bufferView":1,"componentType":5126,"count":11376,"type":"VEC3"}]}
